<?xml version="1.0" encoding="iso-8859-1"?>
<!-- Generator: Adobe Illustrator 19.0.0, SVG Export Plug-In . SVG Version: 6.00 Build 0)  -->
<svg version="1.1" id="Capa_1" xmlns="http://www.w3.org/2000/svg" xmlns:xlink="http://www.w3.org/1999/xlink" x="0px" y="0px"
	 viewBox="0 0 512.171 512.171" style="enable-background:new 0 0 512.171 512.171;" xml:space="preserve">
<g>
	<g>
		<path fill="#63ff7b" d="M476.723,216.64L263.305,3.115C261.299,1.109,258.59,0,255.753,0c-2.837,0-5.547,1.131-7.552,3.136L35.422,216.64
			c-3.051,3.051-3.947,7.637-2.304,11.627c1.664,3.989,5.547,6.571,9.856,6.571h117.333v266.667c0,5.888,4.779,10.667,10.667,10.667
			h170.667c5.888,0,10.667-4.779,10.667-10.667V234.837h116.885c4.309,0,8.192-2.603,9.856-6.592
			C480.713,224.256,479.774,219.691,476.723,216.64z"/>
	</g>
</g>
<g>
</g>
<g>
</g>
<g>
</g>
<g>
</g>
<g>
</g>
<g>
</g>
<g>
</g>
<g>
</g>
<g>
</g>
<g>
</g>
<g>
</g>
<g>
</g>
<g>
</g>
<g>
</g>
<g>
</g>
</svg>
