<?xml version="1.0" encoding="utf-8"?>
<!-- Generator: Adobe Illustrator 16.0.0, SVG Export Plug-In . SVG Version: 6.00 Build 0)  -->
<!DOCTYPE svg PUBLIC "-//W3C//DTD SVG 1.1//EN" "http://www.w3.org/Graphics/SVG/1.1/DTD/svg11.dtd">
<svg version="1.1" id="Layer_3" xmlns="http://www.w3.org/2000/svg" xmlns:xlink="http://www.w3.org/1999/xlink" x="0px" y="0px"
	 width="627px" height="334px" viewBox="0 0 627 334" enable-background="new 0 0 627 334" xml:space="preserve">
<g>
	<g>
		<path fill="#FF0000" d="M171.529,15.457L21.434,153.095l0.183,95.442c0,0,3.278,62.271,83.231,69.563l101.345,0.014
			c0,0,75.166-1.909,83.684-70.749l0.103-63.109l24.646,0.038v-31.153l-247.241-0.038L192.601,38.415L171.529,15.457z"/>
		<path fill="#FF0000" d="M456.406,15.495l150.096,137.638l-0.184,95.442c0,0-3.277,62.27-83.23,69.563l-101.346,0.014
			c0,0-75.166-1.908-83.684-70.748l-0.102-63.11h-23.332v-31.153h245.926L435.334,38.453L456.406,15.495z"/>
	</g>
	<g>
		<polyline fill="#FFFFFF" points="128,268.333 128,198 198.333,233.667 		"/>
		<polyline fill="#FFFFFF" points="443,269 443,198.667 513.334,234.333 		"/>
	</g>
</g>
</svg>
